<?xml version="1.0" encoding="UTF-8" standalone="no"?>
<!-- Created with Inkscape (http://www.inkscape.org/) -->

<svg
   xmlns:dc="http://purl.org/dc/elements/1.1/"
   xmlns:cc="http://creativecommons.org/ns#"
   xmlns:rdf="http://www.w3.org/1999/02/22-rdf-syntax-ns#"
   xmlns:svg="http://www.w3.org/2000/svg"
   xmlns="http://www.w3.org/2000/svg"
   xmlns:sodipodi="http://sodipodi.sourceforge.net/DTD/sodipodi-0.dtd"
   xmlns:inkscape="http://www.inkscape.org/namespaces/inkscape"
   version="1.0"
   width="100"
   height="20"
   id="svg2"
   sodipodi:docname="minimize.svgz"
   inkscape:version="1.0.1 (3bc2e813f5, 2020-09-07)">
  <sodipodi:namedview
     pagecolor="#ffffff"
     bordercolor="#666666"
     borderopacity="1"
     objecttolerance="10"
     gridtolerance="10"
     guidetolerance="10"
     inkscape:pageopacity="0"
     inkscape:pageshadow="2"
     inkscape:window-width="2560"
     inkscape:window-height="1391"
     id="namedview1127"
     showgrid="false"
     inkscape:zoom="5.6568543"
     inkscape:cx="71.318475"
     inkscape:cy="-3.1720377"
     inkscape:window-x="0"
     inkscape:window-y="1076"
     inkscape:window-maximized="1"
     inkscape:current-layer="svg2" />
  <metadata
     id="metadata11">
    <rdf:RDF>
      <cc:Work
         rdf:about="">
        <dc:format>image/svg+xml</dc:format>
        <dc:type
           rdf:resource="http://purl.org/dc/dcmitype/StillImage" />
        <dc:title />
      </cc:Work>
    </rdf:RDF>
  </metadata>
  <defs
     id="defs4">
    <style
       type="text/css"
       id="current-color-scheme">
      .ColorScheme-Text {
        color:#000000;
      }
      .ColorScheme-Background{
        color:#7f7f7f;
      }
      .ColorScheme-ViewText {
        color:#000000;
      }
      .ColorScheme-ViewBackground{
        color:#ffffff;
      }
      .ColorScheme-ViewHover {
        color:#7f7f7f;
      }
      .ColorScheme-ViewFocus{
        color:#5a5a5a;
      }
      .ColorScheme-ButtonText {
        color:#000000;
      }
      .ColorScheme-ButtonBackground{
        color:#E9E8E8;
      }
      .ColorScheme-ButtonHover {
        color:#1489ff;
      }
      .ColorScheme-ButtonFocus{
        color:#2B74C7;
      }
    </style>
  </defs>
  <g
     transform="matrix(1.3,0,0,1.3,45.733583,17.657219)"
     id="hover-center"
     style="fill:#ffe680">
    <rect
       width="20"
       height="20"
       x="-15.179679"
       y="-18.197861"
       id="rect3079"
       style="opacity:0;fill:#ffe680;fill-opacity:1;stroke:none" />
    <path
       d="M 45,6 A 6,6 0 1 1 33,6 6,6 0 1 1 45,6 z"
       transform="matrix(1.1538463,0,0,1.1538462,-50.281992,-15.215551)"
       id="path3066"
       style="opacity:1;fill:#ffe680;fill-opacity:1;stroke:none"
       class="ColorScheme-ViewHover" />
    <path
       d="m -1.9995539,-9.5991541 -3.2935024,3.4987302 -3.1518621,-3.3519306"
       id="path4829-4-4-8-2"
       style="fill:#ffe680;stroke:#ffffff;stroke-width:1.71467423;stroke-linecap:round;stroke-linejoin:miter;stroke-miterlimit:4;stroke-opacity:1;stroke-dasharray:none" />
  </g>
  <g
     transform="matrix(1.3,0,0,1.3,19.733583,17.657219)"
     id="active-center">
    <rect
       width="20"
       height="20"
       x="-15.179679"
       y="-18.197861"
       id="rect3073"
       style="opacity:0;fill:#000000;fill-opacity:1;stroke:none" />
    <g
       transform="matrix(0.96980672,0,0,1.0298834,128.40765,-155.80514)"
       id="g3075" />
    <path
       d="m -1.98789,-9.6054853 -3.3054218,3.5113876 -3.163271,-3.3640563"
       id="path4829-4-4-8-8"
       style="fill:none;stroke:#ffffff;stroke-width:1.72087908;stroke-linecap:round;stroke-linejoin:miter;stroke-miterlimit:4;stroke-opacity:1;stroke-dasharray:none" />
  </g>
  <g
     transform="matrix(1.3,0,0,1.3,97.73358,17.657219)"
     id="inactive-center">
    <rect
       width="20"
       height="20"
       x="-15.179679"
       y="-18.197861"
       id="rect3924"
       style="opacity:0;fill:#bfc3c7;fill-opacity:1;stroke:none" />
    <g
       transform="matrix(0.96980672,0,0,1.0298834,128.40765,-155.80514)"
       id="g3926" />
    <path
       d="m -1.98789,-9.6054853 -3.3054218,3.5113876 -3.163271,-3.3640563"
       id="path3928"
       style="fill:none;stroke:#ffffff;stroke-width:1.72087908;stroke-linecap:round;stroke-linejoin:miter;stroke-miterlimit:4;stroke-opacity:1;stroke-dasharray:none" />
  </g>
  <g
     transform="matrix(1.3,0,0,1.3,71.733583,17.657219)"
     id="pressed-center"
     style="fill:#ffd42a">
    <rect
       width="20"
       height="20"
       x="-15.179679"
       y="-18.197861"
       id="rect3075"
       style="opacity:0;fill:#ffd42a;fill-opacity:1;stroke:none" />
    <path
       d="M 45,6 A 6,6 0 1 1 33,6 6,6 0 1 1 45,6 z"
       transform="matrix(1.1538463,0,0,1.1538462,-50.281992,-15.215551)"
       id="path3079"
       style="fill:#ffd42a;fill-opacity:0.75;stroke:none"
       class="ColorScheme-ViewHover" />
    <path
       d="m -1.9995539,-9.5991541 -3.2935024,3.4987302 -3.1518621,-3.3519306"
       id="path3081"
       style="fill:#ffd42a;stroke:#606060;stroke-width:1.71467423;stroke-linecap:round;stroke-linejoin:miter;stroke-miterlimit:4;stroke-opacity:1;stroke-dasharray:none" />
  </g>
  <g
     transform="matrix(1.3,0,0,1.3,123.73358,17.657219)"
     id="hover-inactive-center"
     style="fill:#ffe680">
    <rect
       width="20"
       height="20"
       x="-15.179679"
       y="-18.197861"
       id="rect3853"
       style="opacity:0;fill:#ffe680;fill-opacity:1;stroke:none" />
    <path
       d="M 45,6 A 6,6 0 1 1 33,6 6,6 0 1 1 45,6 z"
       transform="matrix(1.1538463,0,0,1.1538462,-50.281992,-15.215551)"
       id="path3857"
       style="opacity:1;fill:#ffe680;fill-opacity:1;stroke:none"
       class="ColorScheme-ViewHover" />
    <path
       d="m -1.9995539,-9.5991541 -3.2935024,3.4987302 -3.1518621,-3.3519306"
       id="path3859"
       style="fill:#ffe680;stroke:#ffffff;stroke-width:1.71467423;stroke-linecap:round;stroke-linejoin:miter;stroke-miterlimit:4;stroke-opacity:1;stroke-dasharray:none" />
  </g>
  <g
     transform="matrix(1.3,0,0,1.3,149.73358,17.657219)"
     id="pressed-inactive-center"
     style="fill:#ffcc00">
    <rect
       width="20"
       height="20"
       x="-15.179679"
       y="-18.197861"
       id="rect3863"
       style="opacity:0;fill:#ffcc00;fill-opacity:1;stroke:none" />
    <path
       d="M 45,6 A 6,6 0 1 1 33,6 6,6 0 1 1 45,6 z"
       transform="matrix(1.1538463,0,0,1.1538462,-50.281992,-15.215551)"
       id="path3867"
       style="fill:#ffcc00;fill-opacity:0.75;stroke:none"
       class="ColorScheme-ViewHover" />
    <path
       d="m -1.9995539,-9.5991541 -3.2935024,3.4987302 -3.1518621,-3.3519306"
       id="path3869"
       style="fill:#ffcc00;stroke:#606060;stroke-width:1.71467423;stroke-linecap:round;stroke-linejoin:miter;stroke-miterlimit:4;stroke-opacity:1;stroke-dasharray:none" />
  </g>
  <path
     style="fill:#ffe680;fill-opacity:1;stroke-width:0.0441942"
     d="M 36.356524,8.6650817 C 34.98146,7.2028577 33.821413,5.9336391 33.778642,5.8445958 33.665922,5.6099266 33.646307,5.2134306 33.735822,4.979038 c 0.158296,-0.4144927 0.562509,-0.6865144 1.020131,-0.6865144 0.506291,0 0.417323,-0.078261 2.82531,2.4852804 0.702752,0.7481486 1.291263,1.34477 1.307803,1.3258252 0.01654,-0.018945 0.836524,-0.8916341 1.822184,-1.9393097 1.85378,-1.9704154 1.881352,-1.995297 2.297548,-2.0733757 0.37832,-0.070973 0.897179,0.2180121 1.106837,0.6164686 0.133565,0.2538415 0.130863,0.6852743 -0.0059,0.9457194 -0.05771,0.1098906 -1.174751,1.3332533 -2.622952,2.8726211 -1.387334,1.4746701 -2.546657,2.7074751 -2.576272,2.7395681 -0.04351,0.04714 -0.534005,-0.452243 -2.553963,-2.6002393 z"
     id="path1259" />
  <path
     style="fill:#ffe680;fill-opacity:1"
     id="path1281"
     d="m 34.780074,4.3625002 c 0.08417,0.1623512 0.0671,0.085009 0.07638,0.2249999 0,0.9621939 1.360748,0.9621939 1.360748,0 v 0 c -0.148377,-0.1192157 -0.126859,-0.04445 -0.06206,-0.2249999 0,-0.9723194 -1.375067,-0.9723194 -1.375068,0 z" />
  <path
     style="fill:#ffe680;fill-opacity:1"
     id="path1283"
     d="m 35.57332,5.4813094 c 0.05646,0.035459 0.120322,0.061231 0.169384,0.1063771 0.137053,0.1261116 0.164363,0.2328649 0.253351,0.3907582 0.03434,0.060925 0.06858,0.1222129 0.109158,0.1791721 0.174432,0.2448503 0.08045,0.019925 0.169926,0.3101516 0.04223,0.01918 0.09109,0.027795 0.126677,0.057539 0.02846,0.023793 0.03104,0.068987 0.05672,0.095759 0.01937,0.020187 0.0497,0.025774 0.07368,0.040172 0.03475,0.020861 0.06573,0.048295 0.102409,0.065543 0.04985,0.023445 0.116642,0.016806 0.155573,0.055784 0.04901,0.049071 0.05888,0.125597 0.08831,0.1883954 0.04257,0.031494 0.08515,0.062987 0.127726,0.094481 0.05596,0.015481 0.119476,0.014386 0.16789,0.046442 0.04307,0.028516 0.05642,0.087109 0.09132,0.1251888 0.03783,0.041279 0.0832,0.074965 0.125611,0.1115222 0.03945,0.034003 0.08706,0.059742 0.119934,0.1001353 0.02941,0.036133 0.04205,0.083148 0.06307,0.1247215 0.0817,0.065919 0.138187,0.1565961 0.214836,0.2272426 0.153697,0.1416607 0.246765,0.1530196 0.33413,0.3544689 0.06419,0.148004 0.02441,0.2196183 -0.0096,0.3603539 3.157157,-1.2597515 0.217683,-1.2079045 -0.0871,-1.0401084 -0.16972,0.09344 -0.159549,0.8579351 0.02548,1.0219553 0.167331,0.1483281 0.386551,0.3069007 0.60875,0.2818368 0.261,-0.029441 0.44221,-0.2835499 0.663315,-0.4253249 0.112809,-0.023887 -0.07507,-0.1464581 -0.03204,-0.1973479 0.0099,-0.011689 0.03017,0.011079 0.04519,0.00814 0.0432,-0.00845 0.088,-0.018225 0.12536,-0.041507 0.07515,-0.046838 0.138355,-0.1105615 0.207464,-0.1659282 0.08108,-0.064955 0.162062,-0.1300251 0.243093,-0.1950377 0.921778,-1.0659578 -0.492273,0.5312007 0.495512,-0.4590927 0.07211,-0.072295 0.117833,-0.1668008 0.177378,-0.2497525 0.05114,-0.071245 0.09008,-0.1535161 0.154677,-0.212832 0.0043,-0.00397 0.27629,-0.1542163 0.32021,-0.1785233 0.02566,-0.021654 0.05132,-0.043308 0.07698,-0.064962 0.03914,-0.007 0.08629,0.00372 0.117433,-0.021014 0.03701,-0.029392 0.0386,-0.087091 0.0666,-0.1251561 0.03097,-0.04209 0.07853,-0.070307 0.108634,-0.1130199 0.266786,-0.3785562 -0.09396,0.033567 0.187335,-0.2725178 0.08978,-0.046844 0.13699,-0.1395298 0.212295,-0.2015995 0.04391,-0.036189 0.09466,-0.063159 0.142214,-0.094405 0.09006,-0.059179 0.253853,-0.1690726 0.349301,-0.2128447 0.05889,-0.027006 0.122612,-0.041895 0.183917,-0.062842 0.03903,-0.060281 0.06508,-0.1313248 0.117087,-0.1808424 0.0087,-0.00825 0.294484,-0.1590449 0.318306,-0.1749028 0.04409,-0.029351 0.07535,-0.078317 0.1239,-0.099495 0.108021,-0.047121 0.105758,-0.034107 0.127154,0.015308 -0.04469,0.1126018 -0.0022,0.058661 -0.149702,0.1087352 -0.01263,0.00429 0.02722,-0.00331 0.03873,-0.010046 0.0032,-0.00188 -0.007,-0.00953 -0.0034,-0.010622 0.04402,-0.013565 0.0985,0.00355 0.139438,0.010677 -1.21e-4,0.00633 0.0057,0.0209 -3.64e-4,0.018987 -0.123793,-0.039233 -0.09978,-0.079865 -0.235257,-0.080216 -0.02418,-6.27e-5 -0.09235,0.027061 -0.06833,0.024347 0.03938,-0.00445 0.0758,-0.034466 0.115131,-0.029635 0.05107,0.00627 0.09447,0.040787 0.141701,0.06118 0.346644,0.1493185 -0.04804,-0.046333 0.23955,0.1797956 0.02941,0.023126 0.07858,0.013678 0.104697,0.040466 0.0015,0.00153 0.03391,0.1441025 0.02023,0.1564943 -0.01572,0.014252 -0.04058,-0.01244 -0.06086,-0.01866 -0.0086,-0.017466 -0.03768,-0.036871 -0.02591,-0.052399 0.0107,-0.014116 0.02325,0.026795 0.036,0.039089 0.02144,0.020669 0.04484,0.039231 0.06647,0.059698 0.01012,0.00957 0.02696,0.016544 0.02872,0.030364 0.0097,0.076183 -0.0188,0.04479 -0.03348,0.032595 0.03148,0.022991 0.05048,0.022133 0.01772,0.070024 -0.0072,0.010561 -0.02955,0.00741 -0.03291,0.019752 -0.0079,0.028835 0.01338,0.061548 0.0031,0.089609 -0.09658,0.1346939 -0.05973,0.06288 -0.112549,0.2143979 -0.195652,0.1840879 0.0076,-0.014574 -0.210237,0.2278641 -0.04403,0.048998 -0.09187,0.094429 -0.13719,0.1422351 -0.04619,0.048728 -0.08344,0.1073062 -0.137328,0.1473561 -0.04865,0.036156 -0.110703,0.049536 -0.164688,0.077097 -0.03111,0.015882 -0.06022,0.0354 -0.09033,0.0531 -0.06356,0.0444 -0.07648,0.1309298 -0.132086,0.1806548 -0.04018,0.035929 -0.09795,0.046438 -0.141631,0.078023 -0.04668,0.033753 -0.08546,0.077259 -0.127521,0.1166164 -0.123178,0.1152708 -0.0981,0.09237 -0.208082,0.2122434 -0.04147,0.017727 -0.09395,0.019929 -0.124423,0.053181 -0.03004,0.032774 -0.02217,0.0866 -0.04071,0.1270019 -0.01674,0.036453 -0.04561,0.066223 -0.0643,0.101717 -0.01175,0.022327 -0.01132,0.050771 -0.02655,0.070882 -0.01426,0.018817 -0.127733,0.09282 -0.143007,0.1031165 -0.02121,0.027665 -0.04242,0.05533 -0.06363,0.082995 -0.02603,0.022007 -0.05663,0.039531 -0.07808,0.066022 -0.110403,0.1836809 -0.02147,0.059329 -0.147493,0.1910925 -0.02119,0.022157 -0.03308,0.055013 -0.05998,0.06973 -0.02547,0.013935 -0.05765,0.00694 -0.08647,0.010403 -9.64e-4,0.091648 -0.09839,0.058737 -0.135492,0.1011664 -0.02166,0.024765 -0.02391,0.064831 -0.04968,0.085279 -0.03656,0.029009 -0.09171,0.027054 -0.128345,0.05597 -0.0244,0.019261 -0.02624,0.057044 -0.04563,0.081341 -0.02558,0.032046 -0.05863,0.057337 -0.08794,0.086005 -0.04137,0.025694 -0.09838,0.035732 -0.124101,0.077082 -0.03638,0.058488 -0.01829,0.1390258 -0.04875,0.2008047 -0.03084,0.062545 -0.08548,0.1102661 -0.130761,0.1632985 -0.04018,0.047061 -0.07705,0.098294 -0.125483,0.1368137 -0.01302,0.010355 -0.218594,0.1153897 -0.250211,0.1316566 -0.197509,0.1226101 -0.03009,0.00864 -0.207103,0.1587678 -0.02707,0.022961 -0.05556,0.044372 -0.08522,0.06387 -0.03502,0.023016 -0.07549,0.037683 -0.108518,0.063469 -0.184884,0.1443196 0.01964,0.038372 -0.164149,0.1224506 -0.04971,0.02552 -0.160356,0.076994 -0.194068,0.1194683 -0.0979,0.1233501 -0.0457,0.1656323 -0.163027,0.2471613 -0.0275,0.01911 -0.142879,0.04141 -0.171103,0.04772 -6.82e-4,0.01771 0.01186,0.04214 -0.002,0.05314 -0.02033,0.01607 -0.05653,-0.0062 -0.07717,0.0095 -0.03416,0.02594 -0.0455,0.0732 -0.07395,0.105296 -0.02305,0.026 -0.05647,0.04144 -0.07933,0.06761 -0.11078,0.126808 0.05608,0.02472 -0.14587,0.118865 0.0017,-0.01479 0.0034,-0.02958 0.0051,-0.04437 9.13e-4,-0.001 0.0039,-0.0023 0.0027,-0.0031 -0.108466,-0.07401 -0.409707,-0.01628 0.300897,-0.196044 0.05715,-0.01446 0.112361,0.03574 0.168704,0.05308 0.03693,0.01137 -0.07365,-0.02344 -0.110476,-0.03516 -0.04945,0.05556 -0.08234,0.138842 -0.254215,0.06785 -0.03689,-0.01524 -0.368417,-0.3546203 -0.384093,-0.3703894 -0.067,-0.049879 -0.1482,-0.084918 -0.201007,-0.149638 -0.04847,-0.059402 -0.04756,-0.148553 -0.0928,-0.2104474 -0.06723,-0.09198 -0.346591,-0.2971966 -0.42401,-0.3598561 C 37.248293,8.8433246 37.550848,9.065521 37.144847,8.7812942 36.958116,8.6210471 36.95048,8.6627698 36.882146,8.4399934 c -0.01339,-0.043641 0.0077,-0.099761 -0.02092,-0.1353371 -0.02998,-0.037293 -0.09689,-0.023361 -0.132432,-0.0554 C 36.663994,8.1908393 36.610771,8.0020418 36.586791,7.9335376 36.488331,7.5811411 36.607701,7.8909466 36.401872,7.610735 36.368402,7.565163 36.359862,7.5039168 36.324582,7.4597297 36.287507,7.413293 36.234154,7.3826146 36.188938,7.3440572 36.131973,7.2936804 36.064743,7.2529436 36.018044,7.1929266 35.959025,7.1170746 35.923402,7.0256241 35.876081,6.9419728 35.786833,6.8806215 35.683863,6.8355402 35.608338,6.7579187 35.54469,6.692503 35.515552,6.6007112 35.468148,6.5227161 35.427966,6.4566039 35.385292,6.3920184 35.345591,6.3256157 35.309533,6.2653036 35.292765,6.1900565 35.240909,6.1426355 34.864931,5.7988142 35.218538,6.337461 34.970756,5.9112515 34.72622,5.7771603 34.877147,5.8776542 34.648073,5.6694337 34.526451,5.5588832 34.456342,5.5382119 34.403899,5.377458 c -0.0131,-0.040166 -0.0024,-0.084474 -0.0045,-0.1266687 -0.0014,-0.028172 -0.0042,-0.056263 -0.0063,-0.084394 -0.125181,-0.068723 -0.05475,-0.00673 -0.115895,-0.1450729 -0.01102,-0.024938 -0.02677,-0.047509 -0.04059,-0.071015 -0.01119,-0.019043 -0.02718,-0.035752 -0.03443,-0.056619 -0.0045,-0.012838 0.0142,-0.041018 6.11e-4,-0.040766 -0.01507,2.798e-4 -0.01257,0.027403 -0.01886,0.041105 0.0079,-4.664e-4 0.02038,-0.00858 0.02369,-0.0014 0.0316,0.068642 -0.02785,0.1363377 -0.04493,0.1948229 -0.01055,0.036115 0.01609,0.096565 -0.01851,0.1113413 -0.02933,0.012525 -0.05653,-0.053125 -0.04674,-0.083474 0.0103,-0.031918 0.05925,-0.031437 0.08888,-0.047156 0.05233,-0.0094 0.10464,-0.018856 0.156977,-0.028185 0.056,-0.00998 0.113005,-0.015335 0.168029,-0.02975 0.08552,-0.022404 0.239483,-0.09937 0.336567,-0.08725 0.425154,0.053077 -0.103427,0.095214 0.263572,0.050916 0.03038,0.0305 0.06075,0.060999 0.09113,0.091499 0.01913,1.945e-4 0.04065,-0.00866 0.0574,5.835e-4 0.01431,0.0079 0.01719,0.028102 0.02254,0.043547 0.0067,0.01938 -0.007,0.057624 0.01333,0.060063 0.02809,0.00336 0.04416,-0.035668 0.06839,-0.050275 0.01085,-0.00654 0.02392,-0.00839 0.03588,-0.012585 1.023613,-0.020414 0.994743,-1.4680209 -0.02887,-1.4476072 v 0 c -0.06523,-0.1349817 -0.01477,-0.020768 7.54e-4,-0.019789 0.01176,7.405e-4 -9.47e-4,-0.038485 -0.01157,-0.033392 -0.02549,0.012221 -0.0326,0.047087 -0.05444,0.065036 -0.09825,0.080739 -0.09373,0.054698 -0.221489,0.04061 -0.28087,0.1187376 -0.01449,0.024529 -0.350144,0.081175 -0.07248,0.012232 -0.14079,0.048098 -0.21416,0.052562 -0.08781,0.00534 -0.175475,-0.033639 -0.262866,-0.023539 -0.159328,0.018415 -0.295651,0.1417486 -0.464191,0.1266771 -0.02863,0.010019 -0.471086,0.1645096 -0.47678,0.1681108 -0.124144,0.078521 -0.354174,0.3553005 -0.400797,0.4879671 -0.05247,0.1493093 0.04498,0.3248595 -0.02349,0.4742015 0.01338,0.086241 0.01703,0.1745649 0.04013,0.2587231 0.01408,0.051273 0.128796,0.2556357 0.149435,0.3058188 0.01895,0.046078 0.01968,0.0995 0.04454,0.1426774 0.01812,0.031477 0.05342,0.04923 0.08013,0.073845 0.01694,0.036764 0.03389,0.073527 0.05083,0.1102904 0.43775,0.2091238 -0.162996,-0.1001114 0.263142,0.2007433 0.232952,0.1644653 0.1826,-0.00705 0.358575,0.2606543 0.04403,0.066987 0.04669,0.1566918 0.09415,0.2212947 0.04522,0.061544 0.1174,0.097703 0.1761,0.1465542 0.10741,0.1277223 0.109742,0.1457046 0.233815,0.2416197 0.335447,0.2593171 -0.09099,-0.090786 0.291068,0.1886746 0.117611,0.086028 0.250348,0.2195368 0.354193,0.318456 0.07839,0.2974568 0.03845,0.1934859 0.159764,0.4697306 0.02714,0.06181 0.04217,0.1313717 0.08422,0.1841804 0.03774,0.047395 0.111185,0.057856 0.147276,0.1065203 0.05587,0.07533 -0.0028,0.2075441 0.109101,0.259345 0.260797,0.1941595 0.0516,0.00132 0.237905,0.3193269 0.09707,0.1656805 0.212172,0.2890883 0.354777,0.4154935 0.0637,0.056463 0.129389,0.1114021 0.200657,0.1579496 0.07197,0.047007 0.151598,0.081087 0.227398,0.12163 0.186728,0.1135596 0.247424,0.1347745 0.399935,0.2845707 0.374975,0.3683011 -0.02037,0.00563 0.296033,0.4027851 0.149612,0.187797 0.223526,0.198504 0.435289,0.312972 0.384554,0.496223 -0.01596,-0.01177 0.389505,0.475712 0.08542,0.102693 0.31709,0.416383 0.433886,0.488665 0.123622,0.07651 0.302676,0.02238 0.414155,0.136741 0.01197,0.01475 0.01698,0.04256 0.0359,0.04426 0.167501,0.01503 0.491647,-0.07143 0.616968,-0.124113 0.01537,-0.0065 -0.01631,-0.03143 -0.01416,-0.04795 0.0086,-0.06623 0.06792,-0.102593 0.111029,-0.143597 -0.01457,-0.01986 -0.05747,-0.03915 -0.0437,-0.05957 0.01846,-0.02737 0.06766,-0.0046 0.09708,-0.01957 0.144741,-0.07374 -0.03062,-0.02923 0.06593,-0.120165 0.05989,-0.05641 0.173163,-0.03287 0.216523,-0.118472 0.02364,-0.02314 0.05296,-0.04163 0.07091,-0.06942 0.02338,-0.03618 0.01942,-0.08927 0.05073,-0.11886 0.02311,-0.02185 0.06493,-0.0043 0.09376,-0.0177 0.0077,-0.0036 -0.0046,-0.0176 -0.0013,-0.02542 0.0348,-0.0823 0.05779,-0.08286 0.1322,-0.14139 0.310505,-0.115331 -0.0076,0.03914 0.19161,-0.17192 0.02874,-0.03045 0.0809,-0.02871 0.112152,-0.05658 0.03989,-0.03558 0.05634,-0.09248 0.09562,-0.128749 0.03138,-0.02897 0.07448,-0.0418 0.111727,-0.06271 0.0324,-0.03389 0.06481,-0.06777 0.09721,-0.101657 0.03491,-0.04113 0.0739,-0.07913 0.104738,-0.123401 0.09724,-0.1395982 0.09958,-0.2194783 0.237725,-0.3316191 0.05145,-0.041766 0.116986,-0.062294 0.17519,-0.093975 0.185593,-0.1010185 0.08879,-0.061996 0.247164,-0.1146951 0.01193,-0.024359 0.01726,-0.053263 0.03578,-0.073078 0.02275,-0.024342 0.05647,-0.035445 0.08366,-0.054709 0.01378,-0.00976 0.02734,-0.020098 0.03906,-0.032248 0.0225,-0.023324 0.03643,-0.055675 0.06328,-0.07382 0.03916,-0.026463 0.09667,-0.023182 0.129952,-0.056745 0.02273,-0.022924 0.01349,-0.063143 0.02024,-0.094715 0.02736,-0.023312 0.190124,-0.1614121 0.207938,-0.1793583 0.03602,-0.036291 0.06085,-0.083482 0.100141,-0.1162096 0.03448,-0.028724 0.08301,-0.036871 0.117748,-0.065292 0.05754,-0.047081 0.08626,-0.1237034 0.152024,-0.1632029 0.02287,-0.022072 0.05165,-0.039336 0.06861,-0.066216 0.0239,-0.03788 0.03433,-0.082743 0.05149,-0.124114 0.0268,-0.040608 0.0536,-0.081216 0.0804,-0.1218242 0.07205,-0.1007864 0.04447,-0.071303 0.160405,-0.1160056 0.02059,-0.027374 0.0051,-0.068318 0.0077,-0.1024776 0.08971,-0.072859 0.05071,-0.025381 0.104317,-0.1519761 0.02693,-0.026106 0.07604,-0.016967 0.104755,-0.041098 0.03213,-0.027001 0.03703,-0.078288 0.06929,-0.1051413 0.08033,-0.066873 0.217272,-0.049012 0.263421,-0.1701135 0.03759,-0.048379 0.07479,-0.097061 0.112761,-0.1451354 0.03666,-0.046408 0.07672,-0.090204 0.111129,-0.1383037 0.122159,-0.1707724 0.07791,-0.1740535 0.261868,-0.3129427 0.0674,-0.050887 0.157628,-0.070588 0.217186,-0.1304641 0.05358,-0.05386 0.07382,-0.1327981 0.110726,-0.1991971 0.03918,-0.066861 0.07449,-0.1361467 0.117546,-0.2005831 0.04259,-0.063735 0.09591,-0.1198018 0.138915,-0.1832555 0.0634,-0.093549 0.200865,-0.3295042 0.234546,-0.4344049 0.02969,-0.092477 0.02278,-0.2688323 0.02287,-0.3646631 -3e-4,-0.072643 0.01115,-0.1462912 -8.99e-4,-0.217929 -0.0089,-0.052874 -0.0413,-0.098971 -0.06079,-0.1489206 -0.0195,-0.04998 -0.04227,-0.099011 -0.05616,-0.150831 -0.0089,-0.033376 -0.0053,-0.06905 -0.01187,-0.1029791 -0.0215,-0.1115427 -0.03719,-0.1016522 -0.117889,-0.2094611 -0.04755,-0.031683 -0.09509,-0.063366 -0.142642,-0.095049 -0.02835,-0.029115 -0.05164,-0.064204 -0.08505,-0.087346 -0.05221,-0.036173 -0.116968,-0.051721 -0.168757,-0.088496 -0.05389,-0.038264 -0.09313,-0.094371 -0.145516,-0.1346671 C 44.052591,4.2306127 43.925169,4.1682 43.846675,4.127389 43.81269,4.0980674 43.77718,4.0704254 43.74472,4.0394241 43.705196,4.0016763 43.671602,3.9578878 43.63095,3.9213579 43.512773,3.8151657 43.393762,3.7140434 43.229469,3.6850811 c -0.088,-0.015513 -0.179159,0.044444 -0.267814,0.01189 -4.46e-4,-0.014873 0.01247,-0.039072 -0.0013,-0.04462 -0.01331,-0.00535 -0.01546,0.025402 -0.02764,0.032976 -0.03146,0.01956 -0.06595,0.034198 -0.100761,0.046864 -0.111851,0.0407 -0.157867,-0.00605 -0.298998,0.049723 -0.04592,0.018148 -0.07327,0.066209 -0.109911,0.099314 -0.10413,0.078762 -0.112123,0.062829 -0.162873,0.176958 -0.02044,0.045961 -0.01707,0.104647 -0.05056,0.1421761 -0.03941,0.044163 -0.106817,0.052474 -0.154472,0.087582 -0.501403,0.3693809 0.261007,-0.1284177 -0.24785,0.1957647 -0.03861,0.029393 -0.08051,0.054898 -0.115825,0.08818 -0.04581,0.043177 -0.07522,0.1037098 -0.126501,0.1402212 -0.44234,0.3149452 0.03033,-0.1332553 -0.448108,0.2142415 -0.06696,0.048631 -0.11143,0.1224424 -0.16964,0.1812628 -0.05108,0.051618 -0.105394,0.099937 -0.158091,0.1499063 -0.06106,0.032843 -0.122114,0.065686 -0.183171,0.09853 -0.04002,0.036455 -0.07465,0.079882 -0.120055,0.1093651 -0.03563,0.023135 -0.08081,0.027039 -0.118914,0.04582 -0.06133,0.030234 -0.135684,0.089412 -0.166056,0.1509608 -0.02345,0.047513 -0.02688,0.1024996 -0.04032,0.1537494 -0.106317,0.4191324 0.03918,-0.00733 -0.212343,0.3563381 -0.05286,0.076426 -0.06887,0.1741012 -0.120394,0.2514337 -0.07873,0.1181719 -0.228725,0.2487795 -0.350276,0.3253199 -0.05329,0.033559 -0.112712,0.056226 -0.169069,0.084339 -0.188917,0.314024 0.01255,0.090773 -0.350038,0.1805809 -0.189518,0.046941 -0.378823,0.1985778 -0.533984,0.3028988 -0.0836,0.056211 -0.168222,0.1109141 -0.251452,0.1676788 -0.03949,0.026932 -0.07777,0.055589 -0.116659,0.083383 0.201637,-0.1156803 0.372669,-0.3369214 0.604913,-0.3470408 0.217624,-0.00948 0.425961,0.1442976 0.582977,0.2952819 0.150543,0.144759 0.08617,0.9071098 1.8e-4,0.9518321 -0.299915,0.1559827 -3.169096,0.1721886 -0.07304,-1.0115241 -0.0085,0.023303 -0.0016,0.063236 -0.02551,0.06991 C 39.009784,7.5644063 38.898503,7.4481793 38.83836,7.3477189 38.79513,7.2755039 38.80082,7.1797543 38.75428,7.1096259 38.476975,6.6917923 38.64456,7.2324006 38.534139,6.7606398 38.493539,6.7112908 38.459159,6.6560738 38.41233,6.6125914 38.36199,6.5658514 38.297538,6.5365474 38.245052,6.4922308 38.190162,6.4458838 38.142596,6.3915 38.091129,6.3413793 c -0.04964,-0.04834 -0.105313,-0.091072 -0.149393,-0.1445295 -0.03653,-0.044305 -0.05042,-0.1055045 -0.09061,-0.1465226 -0.03278,-0.033462 -0.08116,-0.046807 -0.121743,-0.070211 -0.259308,-0.1578951 0.03052,0.044919 -0.186667,-0.2089395 -0.03233,-0.037794 -0.08676,-0.051306 -0.120853,-0.087517 -0.03671,-0.038988 -0.05682,-0.09087 -0.08807,-0.1343631 -0.02274,-0.031657 -0.04912,-0.060535 -0.07368,-0.090802 -0.01256,-0.018151 -0.02511,-0.036302 -0.03767,-0.054453 -0.03151,0.00679 -0.06231,0.020385 -0.09454,0.020369 -0.06301,-3.13e-5 -0.148688,-0.043769 -0.186818,-0.08965 -0.03285,-0.039529 -0.04723,-0.091304 -0.07134,-0.1366938 -0.02669,-0.050247 -0.0731,-0.093874 -0.08107,-0.1502094 -0.009,-0.063833 0.02187,-0.1270708 0.03281,-0.1906062 C 36.380159,3.974702 35.132044,4.5987592 35.57332,5.4813094 Z" />
  <path
     style="fill:#ffe680;fill-opacity:1;stroke-width:0.0110485"
     d="m 114.3713,8.7070838 c -1.36297,-1.4502083 -2.49961,-2.6677352 -2.52586,-2.7056154 -0.0643,-0.092798 -0.12102,-0.2116784 -0.15754,-0.3302019 -0.0283,-0.091902 -0.0302,-0.1110418 -0.0302,-0.3025076 0,-0.1918162 0.002,-0.2104842 0.0305,-0.3032702 0.0324,-0.1051664 0.0974,-0.2429487 0.15373,-0.3258328 0.05,-0.073486 0.19121,-0.2166371 0.26838,-0.2719749 0.0896,-0.064276 0.25556,-0.142937 0.36399,-0.1725722 0.074,-0.020223 0.11898,-0.024281 0.27621,-0.024919 0.16364,-6.634e-4 0.19993,0.00254 0.28174,0.024876 0.16281,0.044445 0.32951,0.1325636 0.44825,0.2369354 0.0458,0.0403 3.3267,3.5213029 3.35864,3.563531 0.009,0.012234 0.37829,-0.3739512 1.75739,-1.8390407 0.96013,-1.0199898 1.77721,-1.8826016 1.81573,-1.916915 0.2178,-0.1940114 0.53697,-0.2956386 0.82793,-0.2636221 0.2685,0.029545 0.49103,0.1347976 0.67593,0.3196924 0.3754,0.375397 0.43323,0.9547068 0.13934,1.3956991 -0.0343,0.051472 -0.15148,0.1873871 -0.26911,0.3121405 -0.11459,0.121534 -1.24678,1.3247204 -2.51598,2.6737475 -1.26919,1.3490271 -2.3331,2.4783851 -2.36424,2.5096841 l -0.0566,0.05691 z"
     id="path1287" />
  <path
     style="fill:#ffe680;fill-opacity:1"
     id="path1289"
     d="M 0,0 C 0,0 0,0 0,0 0,0 0,0 0,0 0,0 0,0 0,0 0,0 0,0 0,0 0,0 0,0 0,0 0,0 0,0 0,0 0,0 0,0 0,0 0,0 0,0 0,0 0,0 0,0 0,0 0,0 0,0 0,0 0,0 0,0 0,0 0,0 0,0 0,0 0,0 0,0 0,0 0,0 0,0 0,0 0,0 0,0 0,0 0,0 0,0 0,0 0,0 0,0 0,0 0,0 0,0 0,0 0,0 0,0 0,0 0,0 0,0 0,0 0,0 0,0 0,0 0,0 0,0 0,0 0,0 0,0 0,0 0,0 0,0 0,0 0,0 0,0 0,0 0,0 0,0 0,0 0,0 0,0 0,0 0,0 0,0 0,0 0,0 0,0 0,0 0,0 0,0 0,0 0,0 0,0 0,0 0,0 0,0 0,0 0,0 0,0 0,0 0,0 0,0 0,0 0,0 0,0 0,0 0,0 0,0 0,0 0,0 0,0 0,0 0,0 0,0 0,0 0,0 0,0 0,0 0,0 0,0 0,0 0,0 0,0 0,0 0,0 0,0 0,0 0,0 0,0 0,0 0,0 0,0 0,0 0,0 0,0 0,0 0,0 0,0 0,0 0,0 0,0 0,0 0,0 0,0 0,0 0,0 0,0 0,0 0,0 0,0 0,0 0,0 0,0 0,0 0,0 0,0 0,0 0,0 0,0 0,0 0,0 0,0 0,0 0,0 0,0 0,0 0,0 0,0 0,0 0,0 0,0 0,0 0,0 0,0 0,0 0,0 0,0 0,0 0,0 0,0 0,0 0,0 0,0 0,0 0,0 0,0 0,0 0,0 0,0 0,0 0,0 0,0 0,0 0,0 0,0 0,0 0,0 0,0 0,0 0,0 0,0 0,0 0,0 0,0 0,0 0,0 0,0 0,0 0,0 0,0 0,0 0,0 0,0 0,0 0,0 0,0 0,0 0,0 0,0 0,0 0,0 0,0 0,0 0,0 0,0 0,0 0,0 0,0 0,0 0,0 0,0 0,0 0,0 0,0 0,0 0,0 0,0 0,0 0,0 0,0 0,0 0,0 0,0 0,0 0,0 0,0 0,0 0,0 0,0 0,0 0,0 0,0 0,0 0,0 0,0 0,0 0,0 0,0 0,0 0,0 0,0 0,0 0,0 0,0 0,0 0,0 0,0 0,0 0,0 0,0 0,0 0,0 0,0 0,0 0,0 0,0 0,0 0,0 0,0 0,0 0,0 0,0 0,0 0,0 0,0 0,0 0,0 0,0 0,0 0,0 0,0 0,0 0,0 0,0 0,0 0,0 0,0 0,0 0,0 0,0 0,0 0,0 0,0 0,0 0,0 0,0 0,0 0,0 0,0 0,0 0,0 0,0 0,0 0,0 0,0 0,0 0,0 0,0 0,0 0,0 0,0 0,0 0,0 0,0 0,0 0,0 0,0 0,0 0,0 0,0 0,0 0,0 0,0 0,0 0,0 0,0 0,0 0,0 0,0 0,0 0,0 0,0 0,0 0,0 0,0 0,0 0,0 0,0 0,0 0,0 0,0 0,0 0,0 0,0 0,0 0,0 0,0 0,0 0,0 0,0 0,0 0,0 0,0 0,0 0,0 0,0 0,0 0,0 0,0 0,0 0,0 0,0 0,0 0,0 0,0 0,0 0,0 0,0 0,0 0,0 0,0 0,0 0,0 0,0 0,0 0,0 0,0 0,0 0,0 0,0 0,0 0,0 0,0 0,0 0,0 0,0 0,0 0,0 0,0 0,0 0,0 0,0 0,0 0,0 0,0 0,0 0,0 0,0 0,0 0,0 0,0 0,0 0,0 0,0 0,0 0,0 0,0 0,0 0,0 0,0 0,0 0,0 0,0 0,0 0,0 0,0 0,0 0,0 0,0 0,0 0,0 0,0 0,0 0,0 0,0 0,0 0,0 0,0 0,0 0,0 0,0 0,0 0,0 0,0 0,0 0,0 0,0 0,0 0,0 0,0 0,0 0,0 0,0 0,0 0,0 0,0 0,0 0,0 0,0 0,0 0,0 0,0 0,0 0,0 0,0 0,0 0,0 0,0 0,0 0,0 0,0 0,0 0,0 0,0 0,0 0,0 0,0 0,0 0,0 0,0 0,0 0,0 0,0 0,0 0,0 0,0 0,0 0,0 0,0 0,0 0,0 0,0 0,0 0,0 0,0 0,0 0,0 0,0 0,0 0,0 0,0 0,0 0,0 0,0 0,0 0,0 0,0 0,0 0,0 0,0 0,0 0,0 0,0 0,0 0,0 0,0 0,0 0,0 0,0 0,0 0,0 0,0 0,0 0,0 0,0 0,0 0,0 0,0 0,0 0,0 0,0 0,0 0,0 0,0 0,0 0,0 0,0 0,0 0,0 0,0 0,0 0,0 0,0 0,0 0,0 0,0 0,0 0,0 0,0 0,0 0,0 0,0 0,0 0,0 0,0 0,0 0,0 0,0 0,0 0,0 0,0 0,0 0,0 0,0 0,0 0,0 0,0 0,0 0,0 0,0 0,0 0,0 0,0 0,0 0,0 0,0 0,0 0,0 0,0 0,0 0,0 0,0 0,0 0,0 0,0 0,0 0,0 0,0 0,0 0,0 0,0 0,0 0,0 0,0 0,0 0,0 0,0 0,0 0,0 0,0 0,0 0,0 0,0 0,0 0,0 0,0 0,0 0,0 0,0 0,0 0,0 0,0 0,0 0,0 0,0 0,0 0,0 0,0 0,0 0,0 0,0 0,0 0,0 0,0 0,0 0,0 0,0 0,0 0,0 0,0 0,0 0,0 0,0 0,0 0,0 0,0 0,0 0,0 0,0 0,0 0,0 0,0 0,0 0,0 0,0 0,0 0,0 0,0 0,0 0,0 0,0 0,0 0,0 0,0 0,0 0,0 0,0 0,0 0,0 0,0 0,0 0,0 0,0 0,0 0,0 0,0 0,0 0,0 0,0 0,0 0,0 0,0 0,0 0,0 0,0 0,0 0,0 0,0 0,0 0,0 0,0 0,0 0,0 0,0 0,0 0,0 0,0 0,0 0,0 0,0 0,0 0,0 0,0 0,0 0,0 0,0 0,0 0,0 0,0 0,0 0,0 0,0 0,0 0,0 0,0 0,0 0,0 0,0 0,0 0,0 0,0 0,0 0,0 0,0 0,0 0,0 0,0 0,0 0,0 0,0 0,0 0,0 0,0 0,0 0,0 0,0 0,0 0,0 0,0 0,0 0,0 0,0 0,0 0,0 0,0 0,0 0,0 0,0 0,0 0,0 0,0 0,0 0,0 0,0 0,0 0,0 0,0 0,0 0,0 0,0 0,0 0,0 0,0 0,0 0,0 0,0 0,0 0,0 0,0 0,0 0,0 0,0 0,0 0,0 0,0 0,0 0,0 0,0 0,0 0,0 0,0 0,0 0,0 0,0 0,0 0,0 0,0 0,0 V 0 C 0,0 0,0 0,0 0,0 0,0 0,0 0,0 0,0 0,0 0,0 0,0 0,0 0,0 0,0 0,0 0,0 0,0 0,0 0,0 0,0 0,0 0,0 0,0 0,0 0,0 0,0 0,0 0,0 0,0 0,0 0,0 0,0 0,0 0,0 0,0 0,0 0,0 0,0 0,0 0,0 0,0 0,0 0,0 0,0 0,0 0,0 0,0 0,0 0,0 0,0 0,0 0,0 0,0 0,0 0,0 0,0 0,0 0,0 0,0 0,0 0,0 0,0 0,0 0,0 0,0 0,0 0,0 0,0 0,0 0,0 0,0 0,0 0,0 0,0 0,0 0,0 0,0 0,0 0,0 0,0 0,0 0,0 0,0 0,0 0,0 0,0 0,0 0,0 0,0 0,0 0,0 0,0 0,0 0,0 0,0 0,0 0,0 0,0 0,0 0,0 0,0 0,0 0,0 0,0 0,0 0,0 0,0 0,0 0,0 0,0 0,0 0,0 0,0 0,0 0,0 0,0 0,0 0,0 0,0 0,0 0,0 0,0 0,0 0,0 0,0 0,0 0,0 0,0 0,0 0,0 0,0 0,0 0,0 0,0 0,0 0,0 0,0 0,0 0,0 0,0 0,0 0,0 0,0 0,0 0,0 0,0 0,0 0,0 0,0 0,0 0,0 0,0 0,0 0,0 0,0 0,0 0,0 0,0 0,0 0,0 0,0 0,0 0,0 0,0 0,0 0,0 0,0 0,0 0,0 0,0 0,0 0,0 0,0 0,0 0,0 0,0 0,0 0,0 0,0 0,0 0,0 0,0 0,0 0,0 0,0 0,0 0,0 0,0 0,0 0,0 0,0 0,0 0,0 0,0 0,0 0,0 0,0 0,0 0,0 0,0 0,0 0,0 0,0 0,0 0,0 0,0 0,0 0,0 0,0 0,0 0,0 0,0 0,0 0,0 0,0 0,0 0,0 0,0 0,0 0,0 0,0 0,0 0,0 0,0 0,0 0,0 0,0 0,0 0,0 0,0 0,0 0,0 0,0 0,0 0,0 0,0 0,0 0,0 0,0 0,0 0,0 0,0 0,0 0,0 0,0 0,0 0,0 0,0 0,0 0,0 0,0 0,0 0,0 0,0 0,0 0,0 0,0 0,0 0,0 0,0 0,0 0,0 0,0 0,0 0,0 0,0 0,0 0,0 0,0 0,0 0,0 0,0 0,0 0,0 0,0 0,0 0,0 0,0 0,0 0,0 0,0 0,0 0,0 0,0 0,0 0,0 0,0 0,0 0,0 0,0 0,0 0,0 0,0 0,0 0,0 0,0 0,0 0,0 0,0 0,0 0,0 0,0 0,0 0,0 0,0 0,0 0,0 0,0 0,0 0,0 0,0 0,0 0,0 0,0 0,0 0,0 0,0 0,0 0,0 0,0 0,0 0,0 0,0 0,0 0,0 0,0 0,0 0,0 0,0 0,0 0,0 0,0 0,0 0,0 0,0 0,0 0,0 0,0 0,0 0,0 0,0 0,0 0,0 0,0 0,0 0,0 0,0 0,0 0,0 0,0 0,0 0,0 0,0 0,0 0,0 0,0 0,0 0,0 0,0 0,0 0,0 0,0 0,0 0,0 0,0 0,0 0,0 0,0 0,0 0,0 0,0 0,0 0,0 0,0 0,0 0,0 0,0 0,0 0,0 0,0 0,0 0,0 0,0 0,0 0,0 0,0 0,0 0,0 0,0 0,0 0,0 0,0 0,0 0,0 0,0 0,0 0,0 0,0 0,0 0,0 0,0 0,0 0,0 0,0 0,0 0,0 0,0 0,0 0,0 0,0 0,0 0,0 0,0 0,0 0,0 0,0 0,0 0,0 0,0 0,0 0,0 0,0 0,0 0,0 0,0 0,0 0,0 0,0 0,0 0,0 0,0 0,0 0,0 0,0 0,0 0,0 0,0 0,0 0,0 0,0 0,0 0,0 0,0 0,0 0,0 0,0 0,0 0,0 0,0 0,0 0,0 0,0 0,0 0,0 0,0 0,0 0,0 0,0 0,0 0,0 0,0 0,0 0,0 0,0 0,0 0,0 0,0 0,0 0,0 0,0 0,0 0,0 0,0 0,0 0,0 0,0 0,0 0,0 0,0 0,0 0,0 0,0 0,0 0,0 0,0 0,0 0,0 0,0 0,0 0,0 0,0 0,0 0,0 0,0 0,0 0,0 0,0 0,0 0,0 0,0 0,0 0,0 0,0 0,0 0,0 0,0 0,0 0,0 0,0 0,0 0,0 0,0 0,0 0,0 0,0 0,0 0,0 0,0 0,0 0,0 0,0 0,0 0,0 0,0 0,0 0,0 0,0 0,0 0,0 0,0 0,0 0,0 0,0 0,0 0,0 0,0 0,0 0,0 0,0 0,0 0,0 0,0 0,0 0,0 0,0 0,0 0,0 0,0 0,0 0,0 0,0 0,0 0,0 0,0 0,0 0,0 0,0 0,0 0,0 0,0 0,0 0,0 0,0 0,0 0,0 0,0 0,0 0,0 0,0 0,0 0,0 0,0 0,0 0,0 0,0 0,0 0,0 0,0 0,0 0,0 0,0 0,0 0,0 0,0 0,0 0,0 0,0 0,0 0,0 0,0 0,0 0,0 0,0 0,0 0,0 0,0 0,0 0,0 0,0 0,0 0,0 0,0 0,0 0,0 0,0 0,0 0,0 0,0 0,0 0,0 0,0 0,0 0,0 0,0 0,0 0,0 0,0 0,0 0,0 0,0 0,0 0,0 0,0 0,0 0,0 0,0 0,0 0,0 0,0 0,0 0,0 0,0 0,0 0,0 0,0 0,0 0,0 0,0 0,0 0,0 0,0 0,0 0,0 0,0 0,0 0,0 0,0 0,0 0,0 0,0 0,0 0,0 0,0 0,0 0,0 0,0 0,0 0,0 0,0 0,0 0,0 0,0 0,0 0,0 0,0 0,0 0,0 0,0 0,0 0,0 0,0 0,0 0,0 0,0 0,0 0,0 0,0 0,0 0,0 0,0 0,0 0,0 0,0 0,0 0,0 0,0 0,0 0,0 0,0 0,0 0,0 0,0 0,0 0,0 0,0 0,0 0,0 0,0 0,0 0,0 0,0 0,0 0,0 0,0 0,0 0,0 0,0 0,0 0,0 0,0 0,0 0,0 0,0 0,0 0,0 0,0 0,0 0,0 0,0 0,0 0,0 0,0 0,0 0,0 0,0 0,0 0,0 0,0 0,0 0,0 0,0 0,0 0,0 0,0 0,0 0,0 0,0 0,0 0,0 0,0 0,0 0,0 0,0 0,0 0,0 0,0 0,0 0,0 0,0 0,0 0,0 0,0 0,0 0,0 0,0 0,0 0,0 0,0 0,0 0,0 0,0 0,0 0,0 0,0 0,0 0,0 0,0 0,0 0,0 0,0 0,0 0,0 0,0 0,0 0,0 0,0 0,0 0,0 0,0 0,0 0,0 0,0 0,0 Z" />
</svg>
